<?xml version="1.0" encoding="UTF-8" standalone="no"?>
<!-- Created with Inkscape (http://www.inkscape.org/) -->

<svg
   width="210mm"
   height="210mm"
   viewBox="0 0 210 210"
   version="1.1"
   id="svg1"
   xml:space="preserve"
   xmlns="http://www.w3.org/2000/svg"
   xmlns:svg="http://www.w3.org/2000/svg"><defs
     id="defs1" /><g
     id="layer2"
     style="display:none"><path
       style="display:none;fill:#000000"
       d="m 100,68.748487 56.95232,0.1583 0.0685,12.502482 0.0685,13.225257 h -39.43464 l -2.20752,14.364124 -0.73584,55.89805 -8.59172,42.97533 -6.1196,9.84101 z m 8.92892,96.482113 0.36792,-5.45862 V 87.491927 l 24.0114,-0.148918 16.58354,-0.147829 V 81.305697 75.416215 L 100,75.448735 V 209.23495 Z M 100,199.04178 V 84.009261 l 6.38005,75.708189 z m 13.6997,13.44464 c 3.37101,-2.787 4.11213,-7.77648 4.11213,-7.77648 0,0 24.91005,-18.57203 26.881,-20.45421 4.83896,-4.62103 21.52221,-17.6986 21.34474,-16.53464 -0.17939,1.17653 -12.48272,16.03728 -15.45711,18.79765 -10.79129,10.01483 -37.8539,26.77222 -36.88076,25.96768 z m 0.85548,-15.06183 c 0,0 4.95117,-9.56855 14.19395,-18.25614 5.08353,-4.77819 39.59128,-29.34445 39.59128,-29.34445 0,0 -16.76047,15.42945 -19.90847,19.6127 -3.52713,4.68704 -16.5611,19.3867 -22.60043,22.7212 -4.03557,2.22816 -11.27633,5.26669 -11.27633,5.26669 z m 3.52733,-25.94883 c 0.16221,-6.32723 2.9321,-8.3145 4.90086,-9.88359 14.95636,-11.92013 40.42132,-31.72612 42.92049,-33.96456 14.16092,-11.06242 30.50203,-34.896748 24.03887,-49.948324 -6.13843,-14.295317 -57.64342,-13.808906 -70.0875,-20.220463 -12.30428,-6.339527 11.61299,-12.766959 11.61299,-12.766959 -11.09912,10.203721 46.92092,8.276119 61.32493,23.637815 14.30874,15.260093 4.36278,44.141661 -27.01843,72.468371 -9.73376,8.78633 -19.41629,16.08625 -44.13472,34.10274 -1.29012,0.94033 -3.70122,2.18112 -3.55749,-3.42503 z m 1.71341,-25.13541 c 0.0461,-5.42818 0.94222,-6.8069 8.78212,-12.60147 12.59838,-9.31163 37.22269,-20.9919 37.22269,-20.9919 -3.27466,5.40934 -10.24984,11.79007 -14.98479,15.72463 -4.69262,3.8994 -31.11134,28.62794 -31.02002,17.86874 z m 1.93477,-23.20779 c 0.54335,-5.10036 0.3453,-5.39204 8.11407,-9.0979 13.40027,-0.99099 37.70065,-13.87065 37.70065,-13.87065 0,0 -8.29195,8.12438 -28.77452,17.87026 -16.85657,8.02058 -17.66322,10.94657 -17.0402,5.09829 z m 3.88704,-23.154735 c 2.6382,-0.784654 17.85823,-2.971275 17.85823,-2.971275 0,0 12.54464,-0.102218 12.52131,0.124307 -0.18182,1.764547 -8.07374,5.252233 -18.51024,7.860413 -3.76686,0.94137 -12.23538,3.18728 -13.29018,3.80924 z M 100,68.748487 l -56.95232,0.1583 -0.0685,12.502482 -0.0685,13.225257 h 39.43464 l 2.20752,14.364124 0.73584,55.89805 8.59172,42.97533 6.1196,9.84101 z M 91.07108,165.2306 90.70316,159.77198 V 87.491927 L 66.69176,87.343009 50.10822,87.19518 V 81.305697 75.416215 L 100,75.448735 V 209.23495 Z M 100,199.04178 V 84.009261 l -6.38005,75.708189 z m -13.6997,13.44464 c -3.37101,-2.787 -4.11213,-7.77648 -4.11213,-7.77648 0,0 -24.91005,-18.57203 -26.881,-20.45421 -4.83896,-4.62103 -21.52221,-17.6986 -21.34474,-16.53464 0.17939,1.17653 12.48272,16.03728 15.45711,18.79765 10.79129,10.01483 37.8539,26.77222 36.88076,25.96768 z m -0.85548,-15.06183 c 0,0 -4.95117,-9.56855 -14.19395,-18.25614 C 66.16734,174.39026 31.65959,149.824 31.65959,149.824 c 0,0 16.76047,15.42945 19.90847,19.6127 3.52713,4.68704 16.5611,19.3867 22.60043,22.7212 4.03557,2.22816 11.27633,5.26669 11.27633,5.26669 z m -3.52733,-25.94883 c -0.16221,-6.32723 -2.9321,-8.3145 -4.90086,-9.88359 C 62.06027,149.67204 36.59531,129.86605 34.09614,127.62761 19.93522,116.56519 3.59411,92.730862 10.05727,77.679286 16.1957,63.383969 67.70069,63.87038 80.14477,57.458823 92.44905,51.119296 68.53178,44.691864 68.53178,44.691864 79.6309,54.895585 21.61086,52.967983 7.20685,68.329679 -7.10189,83.589772 2.84407,112.47134 34.22528,140.79805 c 9.73376,8.78633 19.41629,16.08625 44.13472,34.10274 1.29012,0.94033 3.70122,2.18112 3.55749,-3.42503 z m -1.71341,-25.13541 c -0.0461,-5.42818 -0.94222,-6.8069 -8.78212,-12.60147 -12.59838,-9.31163 -37.22269,-20.9919 -37.22269,-20.9919 3.27466,5.40934 10.24984,11.79007 14.98479,15.72463 4.69262,3.8994 31.11134,28.62794 31.02002,17.86874 z m -1.93477,-23.20779 c -0.54335,-5.10036 -0.3453,-5.39204 -8.11407,-9.0979 -13.40027,-0.99099 -37.70065,-13.87065 -37.70065,-13.87065 0,0 8.29195,8.12438 28.77452,17.87026 16.85657,8.02058 17.66322,10.94657 17.0402,5.09829 z M 74.38227,99.977825 C 71.74407,99.193171 56.52404,97.00655 56.52404,97.00655 c 0,0 -12.54464,-0.102218 -12.52131,0.124307 0.18182,1.764547 8.07374,5.252233 18.51024,7.860413 3.76686,0.94137 12.23538,3.18728 13.29018,3.80924 z"
       id="path2" /></g><g
     id="layer1"
     style="display:inline"><path
       style="display:inline;fill:#ff00ff;stroke-width:1.39057"
       d="m 393.65061,693.75035 -0.12054,-512.28154 190.50748,-0.69528 1.39057,60.26719 -147.96569,-5.33985 -3.3059,142.88062 2.25637,149.83344 -13.27376,76.48111 z"
       id="path1"
       transform="scale(0.26458333)" /><path
       style="display:inline;fill:#00ffff;stroke-width:1.39057"
       d="m 393.65515,693.45607 c 0,0.0312 -0.16927,-517.82089 -0.16927,-517.82089 l -198.85089,-1.39056 4.1717,63.40021 144.3578,7.30826 6.15069,128.48614 -1.91533,140.09949 15.92812,84.12921 z"
       id="path3"
       transform="scale(0.26458333)" /><path
       style="display:inline;fill:#000000"
       d="m 100,68.748487 56.95232,0.1583 0.0685,12.502482 0.0685,13.225257 h -39.43464 l -2.20752,14.364124 -0.73584,55.89805 -8.59172,42.97533 -6.1196,9.84101 z m 8.92892,96.482113 0.36792,-5.45862 V 87.491927 l 24.0114,-0.148918 16.58354,-0.147829 V 81.305697 75.416215 L 100,75.448735 V 209.23495 Z M 100,199.04178 V 84.009261 l 6.38005,75.708189 z m 13.6997,13.44464 c 3.37101,-2.787 4.11213,-7.77648 4.11213,-7.77648 0,0 24.91005,-18.57203 26.881,-20.45421 4.83896,-4.62103 21.52221,-17.6986 21.34474,-16.53464 -0.17939,1.17653 -12.48272,16.03728 -15.45711,18.79765 -10.79129,10.01483 -37.8539,26.77222 -36.88076,25.96768 z m 0.85548,-15.06183 c 0,0 4.95117,-9.56855 14.19395,-18.25614 5.08353,-4.77819 39.59128,-29.34445 39.59128,-29.34445 0,0 -16.76047,15.42945 -19.90847,19.6127 -3.52713,4.68704 -16.5611,19.3867 -22.60043,22.7212 -4.03557,2.22816 -11.27633,5.26669 -11.27633,5.26669 z m 3.52733,-25.94883 c 0.16221,-6.32723 2.9321,-8.3145 4.90086,-9.88359 14.95636,-11.92013 40.42132,-31.72612 42.92049,-33.96456 14.16092,-11.06242 30.50203,-34.896748 24.03887,-49.948324 -6.13843,-14.295317 -57.64342,-13.808906 -70.0875,-20.220463 -12.30428,-6.339527 11.61299,-12.766959 11.61299,-12.766959 -11.09912,10.203721 46.92092,8.276119 61.32493,23.637815 14.30874,15.260093 4.36278,44.141661 -27.01843,72.468371 -9.73376,8.78633 -19.41629,16.08625 -44.13472,34.10274 -1.29012,0.94033 -3.70122,2.18112 -3.55749,-3.42503 z m 1.71341,-25.13541 c 0.0461,-5.42818 0.94222,-6.8069 8.78212,-12.60147 12.59838,-9.31163 37.22269,-20.9919 37.22269,-20.9919 -3.27466,5.40934 -10.24984,11.79007 -14.98479,15.72463 -4.69262,3.8994 -31.11134,28.62794 -31.02002,17.86874 z m 1.93477,-23.20779 c 0.54335,-5.10036 0.3453,-5.39204 8.11407,-9.0979 13.40027,-0.99099 37.70065,-13.87065 37.70065,-13.87065 0,0 -8.29195,8.12438 -28.77452,17.87026 -16.85657,8.02058 -17.66322,10.94657 -17.0402,5.09829 z m 3.88704,-23.154735 c 2.6382,-0.784654 17.85823,-2.971275 17.85823,-2.971275 0,0 12.54464,-0.102218 12.52131,0.124307 -0.18182,1.764547 -8.07374,5.252233 -18.51024,7.860413 -3.76686,0.94137 -12.23538,3.18728 -13.29018,3.80924 z M 100,68.748487 l -56.95232,0.1583 -0.0685,12.502482 -0.0685,13.225257 h 39.43464 l 2.20752,14.364124 0.73584,55.89805 8.59172,42.97533 6.1196,9.84101 z M 91.07108,165.2306 90.70316,159.77198 V 87.491927 L 66.69176,87.343009 50.10822,87.19518 V 81.305697 75.416215 L 100,75.448735 V 209.23495 Z M 100,199.04178 V 84.009261 l -6.38005,75.708189 z m -13.6997,13.44464 c -3.37101,-2.787 -4.11213,-7.77648 -4.11213,-7.77648 0,0 -24.91005,-18.57203 -26.881,-20.45421 -4.83896,-4.62103 -21.52221,-17.6986 -21.34474,-16.53464 0.17939,1.17653 12.48272,16.03728 15.45711,18.79765 10.79129,10.01483 37.8539,26.77222 36.88076,25.96768 z m -0.85548,-15.06183 c 0,0 -4.95117,-9.56855 -14.19395,-18.25614 C 66.16734,174.39026 31.65959,149.824 31.65959,149.824 c 0,0 16.76047,15.42945 19.90847,19.6127 3.52713,4.68704 16.5611,19.3867 22.60043,22.7212 4.03557,2.22816 11.27633,5.26669 11.27633,5.26669 z m -3.52733,-25.94883 c -0.16221,-6.32723 -2.9321,-8.3145 -4.90086,-9.88359 C 62.06027,149.67204 36.59531,129.86605 34.09614,127.62761 19.93522,116.56519 3.59411,92.730862 10.05727,77.679286 16.1957,63.383969 67.70069,63.87038 80.14477,57.458823 92.44905,51.119296 68.53178,44.691864 68.53178,44.691864 79.6309,54.895585 21.61086,52.967983 7.20685,68.329679 -7.10189,83.589772 2.84407,112.47134 34.22528,140.79805 c 9.73376,8.78633 19.41629,16.08625 44.13472,34.10274 1.29012,0.94033 3.70122,2.18112 3.55749,-3.42503 z m -1.71341,-25.13541 c -0.0461,-5.42818 -0.94222,-6.8069 -8.78212,-12.60147 -12.59838,-9.31163 -37.22269,-20.9919 -37.22269,-20.9919 3.27466,5.40934 10.24984,11.79007 14.98479,15.72463 4.69262,3.8994 31.11134,28.62794 31.02002,17.86874 z m -1.93477,-23.20779 c -0.54335,-5.10036 -0.3453,-5.39204 -8.11407,-9.0979 -13.40027,-0.99099 -37.70065,-13.87065 -37.70065,-13.87065 0,0 8.29195,8.12438 28.77452,17.87026 16.85657,8.02058 17.66322,10.94657 17.0402,5.09829 z M 74.38227,99.977825 C 71.74407,99.193171 56.52404,97.00655 56.52404,97.00655 c 0,0 -12.54464,-0.102218 -12.52131,0.124307 0.18182,1.764547 8.07374,5.252233 18.51024,7.860413 3.76686,0.94137 12.23538,3.18728 13.29018,3.80924 z"
       id="path2-6"
       transform="translate(4.1542754,-25.870252)" /><path
       style="fill:#ececec;stroke-width:0.264583"
       d="m 104.12646,107.29857 -2.20915,26.55327 2.20915,15.91174 2.34364,-15.91174 z"
       id="path4" /></g><g
     id="g8"
     style="display:inline"><path
       style="display:inline;fill:#ff00ff;stroke-width:1.39057"
       d="m 393.65061,693.75035 -0.12054,-512.28154 190.50748,-0.69528 1.39057,60.26719 -147.96569,-5.33985 -3.3059,142.88062 2.25637,149.83344 -13.27376,76.48111 z"
       id="path5"
       transform="scale(0.26458333)" /><path
       style="display:inline;fill:#00ffff;stroke-width:1.39057"
       d="m 393.65515,693.45607 c 0,0.0312 -0.16927,-517.82089 -0.16927,-517.82089 l -198.85089,-1.39056 4.1717,63.40021 144.3578,7.30826 6.15069,128.48614 -1.91533,140.09949 15.92812,84.12921 z"
       id="path6"
       transform="scale(0.26458333)" /><path
       style="display:inline;fill:#000000"
       d="m 100,68.748487 56.95232,0.1583 0.0685,12.502482 0.0685,13.225257 h -39.43464 l -2.20752,14.364124 -0.73584,55.89805 -8.59172,42.97533 -6.1196,9.84101 z m 8.92892,96.482113 0.36792,-5.45862 V 87.491927 l 24.0114,-0.148918 16.58354,-0.147829 V 81.305697 75.416215 L 100,75.448735 V 209.23495 Z M 100,199.04178 V 84.009261 l 6.38005,75.708189 z m 13.6997,13.44464 c 3.37101,-2.787 4.11213,-7.77648 4.11213,-7.77648 0,0 24.91005,-18.57203 26.881,-20.45421 4.83896,-4.62103 21.52221,-17.6986 21.34474,-16.53464 -0.17939,1.17653 -12.48272,16.03728 -15.45711,18.79765 -10.79129,10.01483 -37.8539,26.77222 -36.88076,25.96768 z m 0.85548,-15.06183 c 0,0 4.95117,-9.56855 14.19395,-18.25614 5.08353,-4.77819 39.59128,-29.34445 39.59128,-29.34445 0,0 -16.76047,15.42945 -19.90847,19.6127 -3.52713,4.68704 -16.5611,19.3867 -22.60043,22.7212 -4.03557,2.22816 -11.27633,5.26669 -11.27633,5.26669 z m 3.52733,-25.94883 c 0.16221,-6.32723 2.9321,-8.3145 4.90086,-9.88359 14.95636,-11.92013 40.42132,-31.72612 42.92049,-33.96456 14.16092,-11.06242 30.50203,-34.896748 24.03887,-49.948324 -6.13843,-14.295317 -57.64342,-13.808906 -70.0875,-20.220463 -12.30428,-6.339527 11.61299,-12.766959 11.61299,-12.766959 -11.09912,10.203721 46.92092,8.276119 61.32493,23.637815 14.30874,15.260093 4.36278,44.141661 -27.01843,72.468371 -9.73376,8.78633 -19.41629,16.08625 -44.13472,34.10274 -1.29012,0.94033 -3.70122,2.18112 -3.55749,-3.42503 z m 1.71341,-25.13541 c 0.0461,-5.42818 0.94222,-6.8069 8.78212,-12.60147 12.59838,-9.31163 37.22269,-20.9919 37.22269,-20.9919 -3.27466,5.40934 -10.24984,11.79007 -14.98479,15.72463 -4.69262,3.8994 -31.11134,28.62794 -31.02002,17.86874 z m 1.93477,-23.20779 c 0.54335,-5.10036 0.3453,-5.39204 8.11407,-9.0979 13.40027,-0.99099 37.70065,-13.87065 37.70065,-13.87065 0,0 -8.29195,8.12438 -28.77452,17.87026 -16.85657,8.02058 -17.66322,10.94657 -17.0402,5.09829 z m 3.88704,-23.154735 c 2.6382,-0.784654 17.85823,-2.971275 17.85823,-2.971275 0,0 12.54464,-0.102218 12.52131,0.124307 -0.18182,1.764547 -8.07374,5.252233 -18.51024,7.860413 -3.76686,0.94137 -12.23538,3.18728 -13.29018,3.80924 z M 100,68.748487 l -56.95232,0.1583 -0.0685,12.502482 -0.0685,13.225257 h 39.43464 l 2.20752,14.364124 0.73584,55.89805 8.59172,42.97533 6.1196,9.84101 z M 91.07108,165.2306 90.70316,159.77198 V 87.491927 L 66.69176,87.343009 50.10822,87.19518 V 81.305697 75.416215 L 100,75.448735 V 209.23495 Z M 100,199.04178 V 84.009261 l -6.38005,75.708189 z m -13.6997,13.44464 c -3.37101,-2.787 -4.11213,-7.77648 -4.11213,-7.77648 0,0 -24.91005,-18.57203 -26.881,-20.45421 -4.83896,-4.62103 -21.52221,-17.6986 -21.34474,-16.53464 0.17939,1.17653 12.48272,16.03728 15.45711,18.79765 10.79129,10.01483 37.8539,26.77222 36.88076,25.96768 z m -0.85548,-15.06183 c 0,0 -4.95117,-9.56855 -14.19395,-18.25614 C 66.16734,174.39026 31.65959,149.824 31.65959,149.824 c 0,0 16.76047,15.42945 19.90847,19.6127 3.52713,4.68704 16.5611,19.3867 22.60043,22.7212 4.03557,2.22816 11.27633,5.26669 11.27633,5.26669 z m -3.52733,-25.94883 c -0.16221,-6.32723 -2.9321,-8.3145 -4.90086,-9.88359 C 62.06027,149.67204 36.59531,129.86605 34.09614,127.62761 19.93522,116.56519 3.59411,92.730862 10.05727,77.679286 16.1957,63.383969 67.70069,63.87038 80.14477,57.458823 92.44905,51.119296 68.53178,44.691864 68.53178,44.691864 79.6309,54.895585 21.61086,52.967983 7.20685,68.329679 -7.10189,83.589772 2.84407,112.47134 34.22528,140.79805 c 9.73376,8.78633 19.41629,16.08625 44.13472,34.10274 1.29012,0.94033 3.70122,2.18112 3.55749,-3.42503 z m -1.71341,-25.13541 c -0.0461,-5.42818 -0.94222,-6.8069 -8.78212,-12.60147 -12.59838,-9.31163 -37.22269,-20.9919 -37.22269,-20.9919 3.27466,5.40934 10.24984,11.79007 14.98479,15.72463 4.69262,3.8994 31.11134,28.62794 31.02002,17.86874 z m -1.93477,-23.20779 c -0.54335,-5.10036 -0.3453,-5.39204 -8.11407,-9.0979 -13.40027,-0.99099 -37.70065,-13.87065 -37.70065,-13.87065 0,0 8.29195,8.12438 28.77452,17.87026 16.85657,8.02058 17.66322,10.94657 17.0402,5.09829 z M 74.38227,99.977825 C 71.74407,99.193171 56.52404,97.00655 56.52404,97.00655 c 0,0 -12.54464,-0.102218 -12.52131,0.124307 0.18182,1.764547 8.07374,5.252233 18.51024,7.860413 3.76686,0.94137 12.23538,3.18728 13.29018,3.80924 z"
       id="path7"
       transform="translate(4.1542754,-25.870252)" /><path
       style="fill:#999999;stroke-width:0.264583"
       d="m 104.12646,107.29857 -2.20915,26.55327 2.20915,15.91174 2.34364,-15.91174 z"
       id="path8" /></g><g
     id="g12"
     style="display:inline"><path
       style="display:inline;fill:#f9f9f9"
       d="m 100,72.333075 h 52.97888 v 9.527866 9.534386 h -39.82212 l -1.41377,16.029123 0.58708,59.05975 -9.38547,37.68366 L 100,213.5705 Z m 8.92892,92.897525 0.36792,-5.45862 V 87.491927 l 24.0114,-0.148918 16.58354,-0.147829 V 81.305697 75.416215 L 100,75.448735 V 209.23495 Z M 100,187.59855 v -70.47459 l 4.28608,42.59349 z m 17.81565,20.95901 c 3.37101,-2.787 3.17669,-3.66053 3.17669,-3.66053 0,0 21.91663,-16.70114 23.88758,-18.58332 4.83896,-4.62103 14.97411,-13.20848 14.79664,-12.04452 -0.17939,1.17653 -11.36019,11.54716 -14.33458,14.30753 -10.79129,10.01483 -28.49947,20.78538 -27.52633,19.98084 z m 0.10713,-14.12639 c 0,0 7.7575,-8.44602 17.00028,-17.13361 5.08353,-4.77819 17.32772,-14.00318 17.32772,-14.00318 0,0 -3.85135,3.26869 -6.99935,7.45194 -3.52713,4.68704 -13.56768,16.0191 -19.60701,19.3536 -4.03557,2.22816 -7.72164,4.33125 -7.72164,4.33125 z m 7.83265,-31.15749 c 21.1072,-15.97009 42.10315,-31.62059 54.39247,-46.25901 13.17826,-15.69729 16.74137,-30.151471 11.90724,-40.145303 -5.8048,-12.000553 -32.4057,-12.80999 -67.17283,-20.998044 -13.47282,-3.173003 2.88174,-7.739876 2.88174,-7.739876 -7.79997,10.004218 55.62083,6.77776 65.29369,24.431566 8.91883,16.277642 2.10913,28.894267 -9.98293,44.397257 -16.12252,20.67036 -41.41497,39.31266 -57.46606,51.06135 -1.28823,0.94292 -4.32547,-1.36423 0.14668,-4.74794 z m -3.52736,-18.80421 c -0.36678,-4.11527 11.6112,-11.95032 20.00744,-16.90452 4.36648,-2.57643 18.70091,-10.88911 18.70091,-10.88911 -4.95845,3.91263 -10.99819,9.17083 -15.17187,12.73121 -4.64182,3.95974 -22.84663,22.8025 -23.53648,15.06242 z m 3.1481,-22.76942 c -0.27988,-5.12158 7.36571,-6.47866 7.36571,-6.47866 6.93206,-0.19578 14.78161,-4.88169 20.86267,-6.57419 l -6.88515,3.65152 c 0,0 -21.2179,11.69493 -21.34323,9.40133 z m 2.11245,-19.29007 c 2.6382,-0.78466 13.92936,-3.345454 13.92936,-3.345454 0,0 2.81603,0.459047 9.15372,-0.624049 1.74854,-0.298821 0.15816,1.136282 -10.27834,3.744463 -3.76686,0.94137 -12.23538,3.56146 -13.29018,4.18342 z M 100,72.333075 H 47.02112 v 9.527866 9.534386 H 86.84324 L 88.25701,107.42445 87.66993,166.4842 97.0554,204.16786 100,213.5705 Z M 91.07108,165.2306 90.70316,159.77198 V 87.491927 L 66.69176,87.343009 50.10822,87.19518 V 81.305697 75.416215 L 100,75.448735 V 209.23495 Z M 100,187.59855 v -70.47459 l -4.28608,42.59349 z m -17.81565,20.95901 c -3.37101,-2.787 -3.17669,-3.66053 -3.17669,-3.66053 0,0 -21.91663,-16.70114 -23.88758,-18.58332 -4.83896,-4.62103 -14.97411,-13.20848 -14.79664,-12.04452 0.17939,1.17653 11.36019,11.54716 14.33458,14.30753 10.79129,10.01483 28.49947,20.78538 27.52633,19.98084 z m -0.10713,-14.12639 c 0,0 -7.7575,-8.44602 -17.00028,-17.13361 -5.08353,-4.77819 -17.32772,-14.00318 -17.32772,-14.00318 0,0 3.85135,3.26869 6.99935,7.45194 3.52713,4.68704 13.56768,16.0191 19.60701,19.3536 4.03557,2.22816 7.72164,4.33125 7.72164,4.33125 z M 74.24457,163.27368 C 53.13737,147.30359 32.14142,131.65309 19.8521,117.01467 6.67384,101.31738 3.11073,86.863199 7.94486,76.869367 c 5.8048,-12.000553 32.4057,-12.80999 67.17283,-20.998044 13.47282,-3.173003 -2.88174,-7.739876 -2.88174,-7.739876 7.79997,10.004218 -55.62083,6.77776 -65.29369,24.431566 -8.91883,16.277642 -2.10913,28.894267 9.98293,44.397257 16.12252,20.67036 41.41497,39.31266 57.46606,51.06135 1.28823,0.94292 4.32547,-1.36423 -0.14668,-4.74794 z m 3.52736,-18.80421 c 0.36678,-4.11527 -11.6112,-11.95032 -20.00744,-16.90452 -4.36648,-2.57643 -18.70091,-10.88911 -18.70091,-10.88911 4.95845,3.91263 10.99819,9.17083 15.17187,12.73121 4.64182,3.95974 22.84663,22.8025 23.53648,15.06242 z m -3.1481,-22.76942 c 0.27988,-5.12158 -7.36571,-6.47866 -7.36571,-6.47866 -6.93206,-0.19578 -14.78161,-4.88169 -20.86267,-6.57419 l 6.88515,3.65152 c 0,0 21.2179,11.69493 21.34323,9.40133 z m -2.11245,-19.29007 c -2.6382,-0.78466 -13.92936,-3.345454 -13.92936,-3.345454 0,0 -2.81603,0.459047 -9.15372,-0.624049 -1.74854,-0.298821 -0.15816,1.136282 10.27834,3.744463 3.76686,0.94137 12.23538,3.56146 13.29018,4.18342 z"
       id="path11"
       transform="translate(4.1542754,-25.870252)" /><path
       style="fill:#999999;stroke-width:0.264583"
       d="m 104.12646,107.29857 -2.20915,26.55327 2.20915,15.91174 2.34364,-15.91174 z"
       id="path12" /></g></svg>
